<svg width="172" height="39" viewBox="0 0 172 39" fill="none" xmlns="http://www.w3.org/2000/svg">
<path d="M167.982 10.1361C167.832 9.17741 167.272 8.63384 166.303 8.50536C166.241 8.02108 166.21 7.74929 166.21 7.68999C166.21 7.62081 166.215 7.54668 166.224 7.46762C167.889 6.73626 169.577 6.37058 171.286 6.37058C171.366 6.37058 171.449 6.37058 171.537 6.37058C171.722 6.63743 171.846 7.26007 171.907 8.23851C171.969 9.20706 172 11.4703 172 15.0283C172 18.5763 171.952 23.2511 171.855 29.0526C171.273 29.2403 170.577 29.3342 169.766 29.3342C168.955 29.3342 168.325 29.2304 167.876 29.0229C168.035 27.6986 168.114 25.1734 168.114 21.4474C168.114 17.7215 168.07 13.951 167.982 10.1361Z" fill="#F1EBEB"/>
<path d="M160.13 10.1361C159.98 9.17741 159.421 8.63384 158.451 8.50536C158.39 8.02108 158.359 7.74929 158.359 7.68999C158.359 7.62081 158.363 7.54668 158.372 7.46762C160.038 6.73626 161.725 6.37058 163.435 6.37058C163.514 6.37058 163.598 6.37058 163.686 6.37058C163.871 6.63743 163.994 7.26007 164.056 8.23851C164.118 9.20706 164.148 11.4703 164.148 15.0283C164.148 18.5763 164.1 23.2511 164.003 29.0526C163.421 29.2403 162.725 29.3342 161.915 29.3342C161.104 29.3342 160.474 29.2304 160.024 29.0229C160.183 27.6986 160.262 25.1734 160.262 21.4474C160.262 17.7215 160.218 13.951 160.13 10.1361Z" fill="#F1EBEB"/>
<path d="M152.411 6.34093C152.931 5.84677 153.495 5.59969 154.103 5.59969C154.711 5.59969 155.213 5.81217 155.61 6.23715C156.006 6.65225 156.204 7.2403 156.204 8.00131C156.204 8.76231 155.949 9.40472 155.438 9.92853C154.927 10.4425 154.341 10.6994 153.68 10.6994C153.028 10.6994 152.512 10.4721 152.133 10.0175C151.763 9.56285 151.578 8.97974 151.578 8.26815C151.578 7.55656 151.856 6.91415 152.411 6.34093ZM152.054 17.1779C152.054 16.4267 151.82 15.982 151.353 15.8436C151.054 15.7349 150.631 15.6559 150.084 15.6064C150.023 15.3099 149.992 15.0876 149.992 14.9393C149.992 14.7812 149.996 14.6576 150.005 14.5687C151.274 13.7682 152.865 13.3679 154.777 13.3679C155.085 13.3679 155.314 13.3728 155.464 13.3827C155.711 13.8176 155.883 14.6675 155.98 15.9326C156.05 16.5058 156.085 17.3706 156.085 18.5269C156.085 19.6833 156.05 23.2017 155.98 29.0822C155.002 29.27 154.186 29.3639 153.534 29.3639C152.891 29.3639 152.345 29.27 151.895 29.0822C152.054 26.7003 152.133 24.5705 152.133 22.6927C152.133 20.805 152.107 18.9667 152.054 17.1779Z" fill="#F1EBEB"/>
<path d="M145.524 15.4137C145.542 15.2556 145.551 14.9986 145.551 14.6428C145.551 14.2771 145.471 13.9609 145.313 13.694C145.313 13.5952 145.44 13.5063 145.696 13.4272C145.952 13.3382 146.212 13.2938 146.476 13.2938C147.26 13.2938 147.837 13.5705 148.207 14.124C148.586 14.6774 148.776 15.2754 148.776 15.9178C148.776 16.5602 148.666 17.2273 148.445 17.9191C148.225 18.6109 147.912 19.3571 147.507 20.1577C147.11 20.9582 146.687 21.7785 146.238 22.6186C145.022 24.872 143.982 27.15 143.118 29.4528C142.801 29.5912 142.449 29.6604 142.061 29.6604C141.673 29.6604 141.303 29.5764 140.951 29.4083C140.607 29.2403 140.356 29.0427 140.197 28.8154C139.792 28.1631 139.016 25.964 137.871 22.2183C137.386 23.177 136.8 24.4865 136.113 26.1469C135.426 27.7974 134.963 28.8994 134.725 29.4528C134.408 29.5912 134.051 29.6604 133.654 29.6604C133.258 29.6604 132.874 29.5764 132.504 29.4083C132.134 29.2403 131.879 29.0525 131.738 28.845C131.606 28.6375 131.306 27.8863 130.839 26.5916C130.381 25.2969 129.896 23.9429 129.385 22.5296C128.883 21.1163 128.319 19.7524 127.693 18.438C127.067 17.1235 126.543 16.318 126.12 16.0215C125.979 15.9227 125.552 15.8436 124.838 15.7843C124.776 15.3001 124.745 15.0283 124.745 14.969C124.745 14.8998 124.75 14.8257 124.759 14.7466C126.036 13.9461 127.539 13.5458 129.266 13.5458C129.433 13.5458 129.676 13.5557 129.993 13.5754C130.795 14.4946 132.2 18.6208 134.209 25.9542C135.346 23.3252 136.232 20.9977 136.866 18.9717C136.223 16.9753 135.76 15.6114 135.478 14.88C136.333 14.208 137.1 13.8719 137.778 13.8719C138.492 13.8719 139.003 14.1388 139.312 14.6725C139.602 15.1568 139.867 15.898 140.105 16.8962C140.343 17.8944 140.545 18.7641 140.713 19.5054C141.127 21.3634 141.722 23.513 142.497 25.9542C144.427 19.9254 145.436 16.4119 145.524 15.4137Z" fill="#F1EBEB"/>
<path d="M121.652 19.1051C121.652 17.4151 121.309 16.5701 120.621 16.5701C120.119 16.5701 119.639 16.7331 119.18 17.0593C118.722 17.3755 118.229 17.8203 117.7 18.3935C117.7 19.3818 117.674 22.9447 117.621 29.0822C116.643 29.27 115.841 29.3639 115.215 29.3639C114.598 29.3639 114.065 29.27 113.616 29.0822C113.721 27.4416 113.774 24.6298 113.774 20.6469V17.1779C113.774 16.4267 113.541 15.982 113.074 15.8436C112.756 15.7349 112.329 15.6559 111.792 15.6064C111.73 15.3099 111.699 15.0876 111.699 14.9393C111.699 14.7812 111.703 14.6577 111.712 14.5687C112.981 13.7682 114.55 13.3679 116.418 13.3679C116.726 13.3679 116.955 13.3728 117.105 13.3827C117.361 13.8769 117.511 14.3908 117.555 14.9245C117.608 15.4582 117.647 15.9672 117.674 16.4515C118.854 14.8405 119.85 13.8621 120.661 13.5161C121.049 13.3481 121.458 13.2641 121.89 13.2641C122.771 13.2641 123.476 13.5409 124.005 14.0943C124.543 14.6379 124.811 15.4384 124.811 16.4959C124.811 17.3064 124.547 17.9834 124.018 18.5269C123.498 19.0606 122.868 19.3275 122.128 19.3275C121.97 19.3275 121.811 19.3126 121.652 19.283V19.1051Z" fill="#F1EBEB"/>
<path d="M100.834 22.6482C101.098 24.1109 101.662 25.292 102.526 26.1914C103.389 27.0907 104.398 27.5404 105.553 27.5404C106.707 27.5404 107.87 26.982 109.042 25.8652C109.483 26.1914 109.752 26.5768 109.849 27.0215C109.038 28.079 107.839 28.8351 106.253 29.2897C105.61 29.4775 104.865 29.5714 104.019 29.5714C103.182 29.5714 102.314 29.3985 101.415 29.0525C100.517 28.7165 99.7102 28.2224 98.9965 27.5701C98.2915 26.9178 97.7319 26.0629 97.3178 25.0054C96.9036 23.938 96.6965 22.7569 96.6965 21.4622C96.6965 20.1675 96.908 18.9964 97.331 17.9488C97.754 16.8913 98.3135 16.0265 99.0097 15.3544C100.464 13.9411 102.129 13.2345 104.006 13.2345C105.654 13.2345 107.082 13.7336 108.289 14.7318C108.87 15.2259 109.333 15.8683 109.677 16.659C110.029 17.4398 110.205 18.3243 110.205 19.3126C110.205 21.0027 109.708 21.8922 108.712 21.9811L100.834 22.6482ZM106.65 18.8679C106.65 17.6918 106.359 16.7727 105.777 16.1105C105.196 15.4483 104.434 15.1172 103.491 15.1172C102.548 15.1172 101.834 15.6163 101.349 16.6145C100.865 17.6028 100.622 18.9766 100.622 20.7358C102.816 20.469 104.799 20.1873 106.57 19.8908C106.623 19.535 106.65 19.194 106.65 18.8679Z" fill="#F1EBEB"/>
<path d="M79.8038 38.6739C79.98 36.7071 80.0681 33.3023 80.0681 28.4596C80.0681 23.6069 79.9448 19.8463 79.698 17.1779C79.6452 16.1599 79.1473 15.6064 78.2044 15.5175C78.1956 15.4582 78.1824 15.389 78.1647 15.3099C78.1559 15.221 78.1471 15.1518 78.1383 15.1024C78.1207 14.964 78.1119 14.8454 78.1119 14.7466C78.1119 14.6478 78.1163 14.5588 78.1251 14.4798C79.2971 13.9757 80.2532 13.6693 80.9934 13.5606C81.7336 13.442 82.2712 13.3827 82.606 13.3827C82.9497 13.3827 83.1612 13.3827 83.2405 13.3827C83.4432 13.7286 83.5797 14.3661 83.6502 15.2951C84.2583 14.6725 84.9676 14.1783 85.7784 13.8126C86.5979 13.447 87.3601 13.2641 88.0651 13.2641C88.7789 13.2641 89.3957 13.3284 89.9156 13.4568C90.4355 13.5754 90.9466 13.8028 91.4489 14.1388C91.96 14.4649 92.4006 14.8899 92.7707 15.4137C93.6784 16.6985 94.1322 18.5319 94.1322 20.9137C94.1322 22.0503 93.9736 23.1078 93.6563 24.0862C93.3391 25.0647 92.9205 25.8899 92.4006 26.562C91.8895 27.234 91.3035 27.8073 90.6426 28.2817C89.3649 29.2008 88.0915 29.6604 86.8226 29.6604C85.5537 29.6604 84.5315 29.5171 83.756 29.2305C83.756 31.0984 83.7384 34.2758 83.7031 38.7628C82.9012 38.9209 82.1786 39 81.5353 39C80.9009 39 80.3237 38.8913 79.8038 38.6739ZM83.7031 16.8814C83.7384 19.3522 83.756 22.8311 83.756 27.318C84.3023 27.5454 84.9236 27.659 85.6197 27.659C86.3247 27.659 86.9151 27.5355 87.391 27.2884C87.8668 27.0314 88.3118 26.6559 88.726 26.1617C89.6336 25.0647 90.0875 23.4092 90.0875 21.1954C90.0875 18.9124 89.6689 17.3706 88.8317 16.5701C88.2061 15.9672 87.4306 15.6657 86.5054 15.6657C85.5889 15.6657 84.6548 16.071 83.7031 16.8814Z" fill="#F1EBEB"/>
<path d="M60.7036 15.5916C60.122 15.5916 59.8312 15.3099 59.8312 14.7466C59.8312 14.5885 59.84 14.4699 59.8576 14.3908C60.1661 14.1437 60.9195 13.9065 62.1179 13.6792C63.3164 13.442 64.2857 13.3234 65.0259 13.3234C65.2991 14.3216 65.4357 15.4434 65.4357 16.6887C65.4357 17.9339 65.3784 19.3571 65.2638 20.9582C65.1581 22.5494 65.1052 23.6711 65.1052 24.3234C65.1052 24.9757 65.1933 25.5045 65.3696 25.9097C65.5458 26.305 65.9071 26.5027 66.4535 26.5027C67.0086 26.5027 67.577 26.3544 68.1586 26.0579C68.749 25.7516 69.498 25.1932 70.4057 24.3827C70.4057 21.3387 70.4145 17.7215 70.4321 13.531C71.4455 13.3531 72.2606 13.2641 72.8775 13.2641C73.5031 13.2641 74.0451 13.3531 74.5033 13.531C74.3711 15.6954 74.305 17.7758 74.305 19.7722C74.305 21.7587 74.3535 23.8293 74.4504 25.9838C74.468 26.31 74.5253 26.562 74.6223 26.7399C74.7192 26.9178 74.9703 27.0216 75.3757 27.0512C75.7899 27.0809 76.0762 27.1303 76.2349 27.1994C76.2701 27.407 76.2877 27.743 76.2877 28.2075C75.5211 28.6918 74.75 29.0377 73.9746 29.2453C73.1991 29.4627 72.5426 29.5714 72.0051 29.5714C71.4675 29.5714 71.0974 29.349 70.8948 28.9043C70.7009 28.4596 70.5467 27.5701 70.4321 26.2358C68.282 28.4596 66.2288 29.5714 64.2725 29.5714C62.3162 29.5714 61.3381 27.832 61.3381 24.3531L61.5628 16.5108C61.5628 16.1747 61.4703 15.9375 61.2852 15.7992C61.109 15.6608 60.9151 15.5916 60.7036 15.5916Z" fill="#F1EBEB"/>
<path d="M47.0361 24.3383C47.2388 24.2987 47.5296 24.279 47.9085 24.279C48.2962 24.279 48.8073 24.4519 49.4418 24.7978C49.433 24.8769 49.4286 25.0251 49.4286 25.2426C49.4286 25.46 49.4726 25.7269 49.5607 26.0431C49.6577 26.3594 49.8031 26.6509 49.9969 26.9178C50.4199 27.5108 51.1161 27.8073 52.0854 27.8073C53.0547 27.8073 53.6892 27.4416 53.9888 26.7102C54.2444 26.0382 54.2003 25.3414 53.8566 24.6199C53.6011 24.0862 52.9181 23.5773 51.8078 23.093C51.6228 23.0139 51.3672 22.9052 51.0412 22.7668C48.1156 21.5907 46.6351 19.8908 46.5999 17.6671C46.5999 16.659 46.851 15.809 47.3533 15.1172C48.305 13.8225 49.9132 13.1752 52.1779 13.1752C53.6672 13.1752 54.9229 13.5211 55.9451 14.2129C56.9761 14.9047 57.4916 15.7547 57.4916 16.7628C57.4916 17.8895 57.0025 18.4528 56.0244 18.4528C55.3282 18.4528 54.8392 18.3688 54.5572 18.2008C54.2752 18.0229 54.1342 17.9241 54.1342 17.9043C54.1342 17.845 54.1342 17.7906 54.1342 17.7412C54.1342 15.8931 53.3323 14.969 51.7285 14.969C51.1734 14.969 50.7328 15.132 50.4067 15.4582C50.0895 15.7745 49.9309 16.2439 49.9309 16.8666C49.9309 17.4793 50.1247 17.9883 50.5125 18.3935C50.909 18.7987 51.6668 19.2533 52.786 19.7574C53.9139 20.2614 54.6365 20.6024 54.9537 20.7803C56.9364 21.8576 57.9278 23.2511 57.9278 24.9609C57.9278 26.4434 57.3682 27.5849 56.2491 28.3854C55.1388 29.1761 53.6584 29.5714 51.8078 29.5714C50.5829 29.5714 49.6577 29.4528 49.032 29.2156C48.4064 28.9784 47.9305 28.761 47.6045 28.5633C47.2872 28.3657 47.0229 28.1581 46.8114 27.9407C46.6087 27.7233 46.4369 27.4959 46.2959 27.2587C45.917 26.6361 45.8068 26.0036 45.9654 25.3612C46.0976 24.8176 46.4545 24.4766 47.0361 24.3383Z" fill="#F1EBEB"/>
<path d="M21.7649 0L26.9045 12.6598H43.5364L30.0809 20.484L35.2204 33.1438L21.7649 25.3196L8.30932 33.1438L13.4489 20.484L-0.00667572 12.6598H16.6253L21.7649 0Z" fill="#D9D9D9"/>
</svg>
